<?xml version="1.0" standalone="no"?>
<!DOCTYPE svg PUBLIC "-//W3C//DTD SVG 20010904//EN"
 "http://www.w3.org/TR/2001/REC-SVG-20010904/DTD/svg10.dtd">
<svg version="1.0" xmlns="http://www.w3.org/2000/svg"
 width="225.000000pt" height="225.000000pt" viewBox="0 0 225.000000 225.000000"
 preserveAspectRatio="xMidYMid meet">

<g transform="translate(0.000000,225.000000) scale(0.100000,-0.100000)"
fill="#000000" stroke="none">
<path d="M1184 2186 c-40 -18 -50 -34 -28 -43 16 -6 16 -7 -2 -14 -10 -4 -43
-8 -72 -8 -80 -1 -334 -30 -415 -46 -104 -22 -172 -59 -248 -134 -139 -140
-244 -371 -295 -651 -22 -114 -29 -383 -15 -492 48 -362 209 -579 508 -687
336 -122 780 -58 1104 159 95 64 236 211 291 305 86 147 138 348 138 540 0
343 -151 635 -438 849 -99 73 -423 236 -469 236 -15 -1 -42 -7 -59 -14z m-19
-187 c22 -5 93 -35 158 -66 l117 -57 49 13 c47 12 51 11 107 -20 206 -114 326
-263 379 -470 116 -447 -141 -994 -538 -1144 -213 -80 -523 -79 -750 2 -159
56 -285 150 -346 256 -96 168 -135 469 -96 732 52 343 177 567 367 659 76 36
218 81 303 95 73 12 204 13 250 0z"/>
<path d="M695 1395 c-34 -34 -35 -103 -1 -142 19 -22 32 -28 66 -28 34 0 47 6
66 28 75 88 -50 224 -131 142z"/>
<path d="M1403 1396 c-55 -25 -69 -84 -33 -143 33 -55 103 -55 144 0 59 79
-21 182 -111 143z"/>
<path d="M522 997 c26 -320 534 -514 895 -343 126 60 213 170 229 289 9 63 -9
61 -63 -8 -54 -68 -168 -144 -264 -176 -63 -20 -93 -24 -204 -24 -109 0 -142
4 -205 23 -181 57 -303 152 -339 265 -9 27 -18 37 -33 37 -19 0 -20 -4 -16
-63z"/>
</g>
</svg>
